<?xml version="1.0" encoding="utf-8"?>
<!-- Generator: Adobe Illustrator 22.1.0, SVG Export Plug-In . SVG Version: 6.00 Build 0)  -->
<svg version="1.1" id="Ebene_1" xmlns="http://www.w3.org/2000/svg" xmlns:xlink="http://www.w3.org/1999/xlink" x="0px" y="0px"
	 viewBox="0 0 180.1 290.6" style="enable-background:new 0 0 180.1 290.6;" xml:space="preserve">
<style type="text/css">
	.st0{fill:#00A5E1;}
</style>
<rect x="14.2" y="14.1" class="st0" width="151.9" height="262.4"/>
<g>
	<rect x="5.7" y="193.5" transform="matrix(0.4352 -0.9003 0.9003 0.4352 -143.3729 172.4776)" width="120.1" height="14.1"/>
</g>
<g>
	<rect x="54.5" y="193.5" transform="matrix(0.4347 -0.9006 0.9006 0.4347 -115.8375 216.542)" width="120.1" height="14.1"/>
</g>
<path d="M166,290.6H14.1c-7.8,0-14.1-6.3-14.1-14.1V14.1C0,6.3,6.3,0,14.1,0H166c7.8,0,14.1,6.3,14.1,14.1v262.5
	C180.1,284.3,173.8,290.6,166,290.6z M166,14.1H14.1v262.4H166V14.1z"/>
</svg>
